<svg xmlns="http://www.w3.org/2000/svg" xmlns:xlink="http://www.w3.org/1999/xlink" width="1920" height="1183" viewBox="0 0 1920 1183"><defs><style>.a{fill:#fff;stroke:#707070;}.b{clip-path:url(#a);}.c{fill:#6c63ff;}.d{fill:#413f72;}</style><clipPath id="a"><rect class="a" width="1920" height="1183"/></clipPath></defs><g class="b"><circle class="c" cx="320.5" cy="320.5" r="320.5" transform="translate(-239 798)"/><circle class="c" cx="320.5" cy="320.5" r="320.5" transform="translate(737 -391)"/><circle class="c" cx="320.5" cy="320.5" r="320.5" transform="translate(1487 949)"/><path class="d" d="M0-726.681s15.475,16.12,39.977,138.63S230.191-461.672,230.191-461.672s139.544-.143,221.708,84.853S0-362.652,0-362.652Z" transform="translate(0 1442)"/><path class="d" d="M1600-657.689s-42.294,19.609-93.232,121.486c-29.952,59.9-28.175,68.676-44.9,93.916-9.979,19.957-40.5,53.121-73.372,66.622-76.6,42.262,212.53-.25,212.53-.25Z" transform="translate(319 1456)"/><path class="d" d="M580.056-1576s12.574,49.581-30.176,84.787-73.764,62.029-85.5,103.1,3.353,77.117,34.367,102.264,87.176,46.1,223.808,62.867,732.614-70.411,732.614-70.411,84.661-19.279,144.176-18.441,0-264.043,0-264.043Z" transform="translate(334 1572)"/></g></svg>