<svg xmlns="http://www.w3.org/2000/svg" width="95.301" height="91.955" viewBox="0 0 95.301 91.955"><defs><style>.a{fill:#fff;fill-rule:evenodd;}</style></defs><g transform="translate(83.846 -77.698)"><path class="a" d="M-13.748,77.822c6.4-.054,11.876,1.667,16.553,5.629a20.157,20.157,0,0,1,7.1,12.7c1.029,6.783-.163,13.081-4.693,18.463A22.319,22.319,0,0,1-8.3,122.22a25.854,25.854,0,0,1-17.25-2.335c-7.59-4.064-11.481-10.487-11.694-19.115-.176-7.112,2.28-13.1,7.806-17.644A23.483,23.483,0,0,1-13.748,77.822Zm-1.328,12.811c-1.659.755-3.769-.654-4.8,1.62-.037.083-.2.11-.3.165a3.7,3.7,0,0,0-.935,5.612,1.811,1.811,0,0,0,1.506.694,15,15,0,0,1,2.092.121,1.342,1.342,0,0,1,.636.222c.372.272.707.6,1.173,1-.347.757.153,1.378.726,2.008a2.614,2.614,0,0,1,.7,2.5,1.717,1.717,0,0,0,.08,1.1c.632,1.207,1.33,2.381,2.033,3.548a.689.689,0,0,0,.54.291,2.625,2.625,0,0,0,2.355-1.8c.243-.722,1.071-1.282.653-2.215-.03-.067.238-.312.4-.41a1.4,1.4,0,0,0,.642-2c-.619-1.361-.031-2.344.984-3.2A4.12,4.12,0,0,0-6,99.368a3.946,3.946,0,0,0,1.144-2.424,4.305,4.305,0,0,1-.763.144,2.865,2.865,0,0,1-1.253-.142,2.877,2.877,0,0,1-.914-1.025c-.68-1.115-1.786-2.012-1.809-3.484,0-.128-.383-.331-.607-.354a10.413,10.413,0,0,0-1.638-.044c-.491.019-.983.1-1.472.151-.021.11-.044.221-.067.33C-13.867,91.878-15.177,92.229-15.076,90.633Zm9.552,13.155c-1.284.579-1.767,1.376-1.573,2.305a1.1,1.1,0,0,0,.364.544.494.494,0,0,0,.41-.174C-6.053,105.643-5.823,104.813-5.524,103.788Z"/><path class="a" d="M-39.965,143c.017.35.048.693.048,1.034,0,5.308-.017,10.615,0,15.921a2.061,2.061,0,0,1-.634,1.542,25.1,25.1,0,0,1-15.2,7.869c-7.333.935-14.229-.295-20.167-5.016A20.385,20.385,0,0,1-83.658,150.1,22.627,22.627,0,0,1-80.592,135.1c3.523-5.614,8.777-8.718,15.165-9.983A24.456,24.456,0,0,1-50.854,126.3,19.725,19.725,0,0,1-40.685,136c-3.729,1.907-7.419,3.8-11.129,5.7-.161-.236-.285-.393-.381-.566-3.9-6.983-12.475-5.608-16.02-.8-3.658,4.959-2.684,13.516,3.57,16.482,3.719,1.765,7.4,1.288,10.988-.508.79-.4.341-1.061.483-1.726h-8.011V143Z"/><path class="a" d="M-53.195,107.626c-2.414,0-4.715-.031-7.015.017-.781.013-1.05-.18-1.038-1.01.046-3.468.021-6.938.021-10.49h21.176c.021.316.057.623.057.931.01,5.367.027,10.732,0,16.1a1.955,1.955,0,0,1-.456,1.232c-6.116,6.466-13.671,9-22.452,8.152a24.056,24.056,0,0,1-12.567-4.772,20.823,20.823,0,0,1-8.317-15.992,21.8,21.8,0,0,1,4.565-15.487c3.852-4.826,9.023-7.35,15.03-8.264a24.251,24.251,0,0,1,13.312,1.4,19.545,19.545,0,0,1,9.789,8.986c.1.178.161.368.284.663-3.66,1.883-7.3,3.75-10.981,5.639a3.957,3.957,0,0,1-.326-.441c-4.054-7.392-13.178-5.589-16.5-.36-3.618,5.685-1.543,13.665,4.359,16.206,3.594,1.546,7.116,1.029,10.544-.652C-52.862,109.067-53.224,108.367-53.195,107.626Z"/><path class="a" d="M11.455,168.877H9.8c-4.171,0-8.339-.011-12.51.02a.949.949,0,0,1-1.107-.8c-.4-1.422-.851-2.823-1.3-4.285h-5.455c-3.12,0-6.239.016-9.358-.019a.84.84,0,0,0-.972.719c-.343,1.23-.731,2.45-1.1,3.673-.122.406-.252.72-.808.72-4.694-.025-9.387-.017-14.081-.019a1.787,1.787,0,0,1-.339-.08c.121-.387.222-.772.36-1.139q7.674-20.781,15.351-41.558a1.064,1.064,0,0,1,1.186-.837c4.957.034,9.914.03,14.871.017a1.01,1.01,0,0,1,1.159.751q7.737,21.009,15.516,42.009C11.308,168.283,11.358,168.531,11.455,168.877Z"/></g></svg>