<svg xmlns="http://www.w3.org/2000/svg" width="109.109" height="85.367" viewBox="0 0 109.109 85.367"><defs><style>.a{opacity:0.15;}.b{fill:none;stroke:#413f72;}</style></defs><g class="a" transform="translate(0.5 0.5)"><g transform="translate(48.194 20.861)"><path class="b" d="M77.31,65.7,64.155,52.693V34.19A18.5,18.5,0,1,0,77.31,65.7Z" transform="translate(-45.655 -34.19)"/></g><g transform="translate(71.325 41.268)"><path class="b" d="M81.31,49.321h-18.5L75.964,62.333A18.527,18.527,0,0,0,81.31,49.321Z" transform="translate(-62.806 -49.321)"/></g><g transform="translate(70.234 17.318)"><path class="b" d="M80.5,50.066H62v-18.5A18.5,18.5,0,0,1,80.5,50.066Z" transform="translate(-61.997 -31.563)"/></g><g transform="translate(18.606 25.889)"><rect class="b" width="20.724" height="2.813" transform="translate(0 0)"/></g><g transform="translate(18.606 35.346)"><rect class="b" width="20.724" height="2.813" transform="translate(0 0)"/></g><g transform="translate(18.606 44.798)"><rect class="b" width="22.886" height="2.816" transform="translate(0 0)"/></g><g transform="translate(18.606 54.251)"><rect class="b" width="28.464" height="2.816" transform="translate(0 0)"/></g><g transform="translate(0 0)"><path class="b" d="M116.185,18.722H11.763a.667.667,0,0,0-.548.287,5.529,5.529,0,0,0-.758,1.6,12.308,12.308,0,0,0-.382,1.912,22.754,22.754,0,0,0,0,5.3,12.584,12.584,0,0,0,.382,1.916,5.578,5.578,0,0,0,.758,1.6.67.67,0,0,0,.548.287H116.185a.663.663,0,0,0,.548-.287,5.614,5.614,0,0,0,.758-1.6,12.725,12.725,0,0,0,.384-1.916,22.755,22.755,0,0,0,0-5.3,12.805,12.805,0,0,0-.384-1.912,5.547,5.547,0,0,0-.758-1.6A.66.66,0,0,0,116.185,18.722Z" transform="translate(-9.921 -18.722)"/></g><g transform="translate(5.356 14.492)"><rect class="b" width="1.521" height="54.442" transform="translate(0 0)"/></g><g transform="translate(101.232 14.492)"><rect class="b" width="1.52" height="54.442" transform="translate(0 0)"/></g><path class="b" d="M11.574,78.7a.436.436,0,0,1-.339-.163,2.924,2.924,0,0,1-.446-.87,6.059,6.059,0,0,1-.231-1.051,11.138,11.138,0,0,1,0-2.894,5.949,5.949,0,0,1,.231-1.048,2.909,2.909,0,0,1,.446-.867.433.433,0,0,1,.339-.169H116a.429.429,0,0,1,.337.169,2.82,2.82,0,0,1,.448.867,5.858,5.858,0,0,1,.232,1.048,11.139,11.139,0,0,1,0,2.894,5.914,5.914,0,0,1-.232,1.051,2.928,2.928,0,0,1-.448.87A.432.432,0,0,1,116,78.7H76.157a5.931,5.931,0,0,1-5.931,5.931H57.144A5.929,5.929,0,0,1,51.217,78.7Zm45.57,4.425H70.225A4.423,4.423,0,0,0,74.65,78.7H52.722A4.425,4.425,0,0,0,57.144,83.13Z" transform="translate(-9.732 -0.27)"/></g></svg>