<svg xmlns="http://www.w3.org/2000/svg" xmlns:xlink="http://www.w3.org/1999/xlink" width="1107.478" height="616.036" viewBox="0 0 1107.478 616.036"><defs><style>.a,.c{fill:#6c63ff;}.a,.g,.p{opacity:0.1;}.b{fill:#30374e;}.d{fill:#444053;}.e{fill:#afc0e0;}.f{fill:#fff;opacity:0.2;}.h{fill:#e3e8f4;}.i{fill:none;stroke:#535461;stroke-miterlimit:10;stroke-width:2px;}.j{opacity:0.25;}.k{fill:url(#a);}.l{fill:#434175;}.m{opacity:0.05;}.n{fill:#565387;}.o{fill:#ee8e9e;}</style><linearGradient id="a" x1="0.5" y1="1" x2="0.5" gradientUnits="objectBoundingBox"><stop offset="0" stop-color="gray" stop-opacity="0.251"/><stop offset="0.54" stop-color="gray" stop-opacity="0.122"/><stop offset="1" stop-color="gray" stop-opacity="0.102"/></linearGradient></defs><g transform="translate(174.217 0)"><path class="a" d="M38.737,480.121c20.751-33.9,67.677-27.987,100.955-10.293s66.483,44.106,103.106,39.031c30.879-4.282,56.2-31.209,69.88-62.273s17.694-66.092,21.543-100.4q7.257-64.651,14.5-129.384c1.77-15.779,3.86-32.434,12.733-44.919,11.724-16.469,33.216-21.533,51.6-16.582s34.06,18.229,47.472,33.041c42.963,47.43,67.306,111.546,104.866,164.329,7.648,10.746,16.284,21.368,27.709,26.556,16.469,7.462,35.377,2.182,51.465-6.124,52.495-27.06,87.759-82.283,122.416-133.81,16.86-25.043,37.415-51.826,65.464-54.553,29.51-2.933,55.13,22.213,72.474,48.841,55.665,85.68,67.595,202.65,134.84,277.378,8.348,9.264,17.56,17.828,28.172,23.581a72.7,72.7,0,0,0,10.911,4.786c58.671,20.308,78.227,101.83,34.832,150.166-.937,1.029-1.894,2.059-2.861,3.088-6.443,6.8-13.741,13.237-22.449,15.265-8.1,1.873-16.469-.288-24.5-2.625-51.321-14.976-102.025-37.868-155.086-36.757-51.63,1.029-100.6,24.878-151.658,33.463-34.327,5.774-77.846,33.185-112.555,31.94-115.6-4.158-216.34,5.517-331.89,0-57.353-2.635-142.153,2.933-199.5,0C69,731.571,62.05,675.36,56.924,624.09,52.437,579.191,12.129,523.6,38.737,480.121Z" transform="translate(-203.936 -119.579)"/><ellipse class="b" cx="207.657" cy="29.019" rx="207.657" ry="29.019" transform="translate(389.75 547.474)"/><path class="c" d="M178.46,643.017s10.152-2.307,16.805,4.515c0,0-4.276,3.846-14.337-.415Z" transform="translate(-74.187 -191.716)"/><path class="c" d="M175.959,643s-6.015,8.522-2.2,17.267c0,0,5.2-2.5,5.053-13.421Z" transform="translate(-72.81 -191.798)"/><path class="c" d="M168.2,625.39s3.607-7.807,20.766,1.631c0,0-1.846,5.215-9.137,5.292S170.354,629.228,168.2,625.39Z" transform="translate(-71.819 -187.032)"/><path class="c" d="M164.341,625.68s-8.591-.4-8.107,19.167c0,0,5.484.769,8.907-5.676S166.748,629.395,164.341,625.68Z" transform="translate(-69.052 -187.799)"/><path class="c" d="M159,603.485s3.846-13.6,21.9-5.292c0,0-3.153,12.452-19.844,9.722Z" transform="translate(-69.695 -180.833)"/><path class="c" d="M150.29,578.409s8.137-14.029,24.989-2.646c0,0-4.761,12.975-23.3,7.345Z" transform="translate(-67.684 -175.247)"/><path class="c" d="M146.15,554.231s9.714-13.037,26.427-1.777c0,0-9.276,11.491-26.22,4.922Z" transform="translate(-66.728 -169.836)"/><path class="c" d="M142.41,530.372s9.814-13.583,25.835-2.423c0,0-11.291,12.175-25.635,5.438Z" transform="translate(-65.865 -164.22)"/><path class="c" d="M142.23,508.065s10.114-17.328,25.112-7.053c0,0-11.091,15.052-24.9,10.2Z" transform="translate(-65.823 -158.266)"/><path class="c" d="M144,483.3s10.768-17.228,25.45-5.522c0,0-13.152,15.19-25.281,8.576Z" transform="translate(-66.232 -152.712)"/><path class="c" d="M147.526,460.082s13.075-16.39,25.8-11.052c0,0-13.6,17.382-26.15,15.2Z" transform="translate(-66.966 -146.769)"/><path class="c" d="M152.351,437.717s15.029-20,24.9-14.321c0,0-11.006,15.452-25.827,17.959Z" transform="translate(-67.945 -140.864)"/><path class="c" d="M159.765,413.28s13.206-16.4,23.843-13.26c0,0-11.114,16.836-25.458,18.213Z" transform="translate(-69.498 -135.609)"/><path class="c" d="M166.959,389.9s14.752-15.844,21.774-13.706c0,0-10.268,17.2-22.243,17.036Z" transform="translate(-71.424 -130.154)"/><path class="c" d="M173.87,367.191s12.375-18.574,19.859-17.69c0,0-7.161,16.3-19.736,19.482Z" transform="translate(-73.128 -124.031)"/><path class="c" d="M180.8,339.172s11.068-14.352,17.544-14.752c0,0-8.237,18.721-17.744,19.228Z" transform="translate(-74.681 -118.247)"/><path class="c" d="M184.532,315.688l9.676-28.988s2.307,25.458-10.768,34.318Z" transform="translate(-75.337 -109.539)"/><path class="c" d="M187.943,275.872s.338-23.681-1.023-25.512c0,0,9.591,19.028,1.646,35.926Z" transform="translate(-76.141 -101.149)"/><path class="c" d="M152.641,605.168s-12.506-6.63-19.051,12.1c0,0,11.152,6.368,20.766-7.545Z" transform="translate(-63.828 -182.801)"/><path class="c" d="M143.406,579.354s-15.167-5.73-21.036,13.752c0,0,11.9,7.038,22.7-9.045Z" transform="translate(-61.238 -176.923)"/><path class="c" d="M137.427,556.267S126.052,544.646,111,558.06c0,0,10.722,10.145,26.635,1.377Z" transform="translate(-58.613 -170.696)"/><path class="c" d="M134.157,530.927s-11.537-12.16-25.927,1.046c0,0,12.814,10.56,26.15,1.961Z" transform="translate(-57.973 -164.745)"/><path class="c" d="M134.921,508.3s-8.737-18.051-24.481-8.976c0,0,9.891,15.867,24.028,12.106Z" transform="translate(-58.484 -158.038)"/><path class="c" d="M137.768,482.57s-8.714-18.382-24.658-8.514c0,0,11.275,16.621,24.1,11.483Z" transform="translate(-59.1 -152.122)"/><path class="c" d="M144.263,457.266s-4.338-20.5-18.113-21.436c0,0,4.369,21.636,16.544,25.289Z" transform="translate(-62.111 -143.969)"/><path class="c" d="M148.828,434.846S146.005,410,134.63,409.88c0,0,1.654,18.9,13.16,28.573Z" transform="translate(-64.068 -137.978)"/><path class="c" d="M156.994,409.655s-4.776-20.5-15.744-22.3c0,0,2.692,20,15.021,27.473Z" transform="translate(-65.597 -132.776)"/><path class="c" d="M166.149,386.85s-1.538-21.589-8.383-24.32c0,0-2.777,19.828,6.653,27.212Z" transform="translate(-69.322 -127.046)"/><path class="c" d="M171.655,364.7s-2.423-22.189-9.468-24.858c0,0-1.154,17.759,8.537,26.381Z" transform="translate(-70.421 -121.807)"/><path class="c" d="M180.089,339.215s-1.261-18.082-6.422-22c0,0-3.523,20.143,4.115,25.812Z" transform="translate(-72.894 -116.583)"/><path class="c" d="M181.689,314.336l-6.768-29.8s-4.792,25.1,7.361,35.211Z" transform="translate(-73.155 -109.04)"/><path class="c" d="M178.592,277.765s-13.56-19.444-13.452-21.7c0,0,2.723,21.136,18.774,30.681Z" transform="translate(-71.112 -102.465)"/><path class="c" d="M178.36,267.386s-13.429-27.989-18.79-30c0,0,16.99,7.253,19.7,29.073Z" transform="translate(-69.826 -98.155)"/><path class="d" d="M180.309,332.149l-.769-.192c7.576-32.3,8.645-52.67,3-57.346l.523-.631C189.016,278.933,188.077,299.054,180.309,332.149Z" transform="translate(-74.437 -106.602)"/><path class="d" d="M151.9,424.772l-1.192-.331c.838-2.969,1.746-5.992,2.715-8.968,8.46-25.935,15.49-49.993,19.805-68.406l.977-.577c-4.322,18.459-11.16,43.4-19.605,69.36C153.64,418.819,152.733,421.818,151.9,424.772Z" transform="translate(-67.781 -123.343)"/><path class="d" d="M185.757,620.052c-.169-.161-17.09-16.821-30.088-46.332a178.722,178.722,0,0,1-14.313-54.431c-2.307-23.482.846-50.093,7.691-74.529l.984,1.015c-15.383,54.847-4.761,100.248,7.1,127.214,12.868,29.227,29.6,45.725,29.765,45.886Z" transform="translate(-65.448 -146.03)"/><path class="c" d="M223.53,558.391s6.153-1.407,10.168,2.73c0,0-2.592,2.307-8.668-.254Z" transform="translate(-84.593 -172.211)"/><path class="c" d="M222.032,558.39s-3.63,5.153-1.323,10.437c0,0,3.138-1.538,3.077-8.114Z" transform="translate(-83.764 -172.264)"/><path class="c" d="M217.34,547.731s2.177-4.715,12.537.992c0,0-1.115,3.146-5.522,3.192S218.655,550.054,217.34,547.731Z" transform="translate(-83.164 -169.381)"/><path class="c" d="M215,547.91s-5.2-.238-4.907,11.583c0,0,3.315.461,5.384-3.43S216.457,550.156,215,547.91Z" transform="translate(-81.489 -169.845)"/><path class="c" d="M211.75,534.49s2.361-8.222,13.252-3.215c0,0-1.9,7.53-11.991,5.876Z" transform="translate(-81.873 -165.631)"/><path class="c" d="M206.51,519.334s4.915-8.46,15.106-1.6c0,0-2.884,7.845-14.083,4.438Z" transform="translate(-80.663 -162.259)"/><path class="c" d="M204,504.716s5.876-7.884,15.975-1.077c0,0-5.6,6.922-15.844,2.977Z" transform="translate(-80.084 -158.984)"/><path class="c" d="M201.74,490.292s5.938-8.214,15.621-1.461c0,0-6.822,7.361-15.5,3.284Z" transform="translate(-79.562 -155.59)"/><path class="c" d="M201.64,476.8s6.153-10.468,15.175-4.261c0,0-6.707,9.1-15.052,6.153Z" transform="translate(-79.539 -151.99)"/><path class="c" d="M202.68,461.834s6.53-10.422,15.383-3.369c0,0-7.953,9.183-15.29,5.184Z" transform="translate(-79.779 -148.629)"/><path class="c" d="M204.842,447.8s7.9-9.906,15.6-6.676c0,0-8.222,10.506-15.79,9.183Z" transform="translate(-80.234 -145.042)"/><path class="c" d="M207.751,434.277s9.083-12.083,15.052-8.66c0,0-6.653,9.345-15.613,10.86Z" transform="translate(-80.82 -141.47)"/><path class="c" d="M212.244,419.522s7.984-9.914,14.429-8.014c0,0-6.714,10.176-15.383,11.006Z" transform="translate(-81.767 -138.297)"/><path class="c" d="M216.585,405.368s8.914-9.576,13.16-8.283c0,0-6.2,10.391-13.444,10.3Z" transform="translate(-82.924 -134.996)"/><path class="c" d="M220.76,391.641s7.484-11.229,12.006-10.706c0,0-4.322,9.853-11.929,11.783Z" transform="translate(-83.953 -131.291)"/><path class="c" d="M224.963,374.7s6.691-8.676,10.606-8.922c0,0-4.984,11.322-10.729,11.606Z" transform="translate(-84.895 -127.796)"/><path class="c" d="M227.2,360.505,233.04,343s1.384,15.383-6.53,20.766Z" transform="translate(-85.281 -122.537)"/><path class="c" d="M229.273,336.431s.2-14.314-.623-15.421c0,0,5.8,11.5.992,21.72Z" transform="translate(-85.775 -117.46)"/><path class="c" d="M207.917,535.513s-7.553-4.015-11.537,7.307c0,0,6.745,3.846,12.56-4.553Z" transform="translate(-78.325 -166.823)"/><path class="c" d="M202.351,519.858s-9.176-3.461-12.721,8.314c0,0,7.191,4.253,13.721-5.461Z" transform="translate(-76.766 -163.259)"/><path class="c" d="M198.725,505.942s-6.868-7.022-15.975,1.077c0,0,6.484,6.153,16.106.831Z" transform="translate(-75.178 -159.503)"/><path class="c" d="M196.755,490.624s-6.976-7.345-15.675.638c0,0,7.745,6.376,15.8,1.184Z" transform="translate(-74.792 -155.907)"/><path class="c" d="M197.216,476.907s-5.284-10.914-14.806-5.43c0,0,5.984,9.591,14.529,7.322Z" transform="translate(-75.099 -151.843)"/><path class="c" d="M198.929,461.377S193.66,450.263,184,456.231c0,0,6.814,10.052,14.575,6.922Z" transform="translate(-75.466 -148.272)"/><path class="c" d="M202.862,446.11s-2.623-12.4-10.952-12.96c0,0,2.638,13.075,10,15.283Z" transform="translate(-77.293 -143.35)"/><path class="c" d="M205.614,432.538s-1.692-15.021-8.614-15.1c0,0,1,11.429,7.953,17.282Z" transform="translate(-78.468 -139.723)"/><path class="c" d="M210.554,417.31s-2.884-12.4-9.514-13.49c0,0,1.631,12.083,9.083,16.605Z" transform="translate(-79.4 -136.579)"/><path class="c" d="M216.091,403.526s-.946-13.075-5.061-14.706c0,0-1.684,11.991,4.015,16.452Z" transform="translate(-81.653 -133.115)"/><path class="c" d="M219.424,390.129s-1.461-13.414-5.722-15.029c0,0-.7,10.768,5.161,15.952Z" transform="translate(-82.318 -129.948)"/><path class="c" d="M224.528,374.726s-.769-10.929-3.846-13.306c0,0-2.13,12.183,2.484,15.606Z" transform="translate(-83.822 -126.79)"/><path class="c" d="M225.512,359.683l-4.092-18.013s-2.9,15.183,4.446,21.289Z" transform="translate(-83.975 -122.23)"/><path class="c" d="M223.62,337.581s-8.191-11.745-8.13-13.121c0,0,1.638,12.775,11.345,18.544Z" transform="translate(-82.736 -118.257)"/><path class="c" d="M223.45,331.3s-8.122-16.921-11.36-18.113c0,0,10.276,4.384,11.906,17.582Z" transform="translate(-81.952 -115.655)"/><path class="d" d="M224.645,370.445l-.485-.115c4.615-19.528,5.23-31.842,1.815-34.665l.315-.385C229.913,338.28,229.344,350.447,224.645,370.445Z" transform="translate(-84.738 -120.755)"/><path class="d" d="M207.483,426.461l-.723-.208c.508-1.792,1.061-3.615,1.646-5.384,5.1-15.683,9.36-30.227,11.968-41.356l.592-.354c-2.615,11.152-6.745,26.243-11.852,41.941C208.529,422.877,207.983,424.669,207.483,426.461Z" transform="translate(-80.721 -130.885)"/><path class="d" d="M227.945,544.508c-.1-.1-10.329-10.168-18.19-28.012a108.23,108.23,0,0,1-8.653-32.9c-1.407-14.2.515-30.288,4.661-45.063l.592.615c-9.3,33.157-2.877,60.607,4.292,76.913,7.784,17.69,17.89,27.635,18,27.735Z" transform="translate(-79.309 -144.592)"/><path class="e" d="M241.685,592.869a29.412,29.412,0,0,0-5.768,1.646c-41.487,16.567-40.795,125.014-40.795,125.014H182.908s-3.846-46.54-20.6-112.939c-15.1-59.738,46.825-113.277,59.4-123.43,1.415-1.131,2.2-1.731,2.2-1.731C286.271,504.35,241.685,592.869,241.685,592.869Z" transform="translate(-69.913 -154.496)"/><path class="f" d="M228.452,483.319c-1.438-.661-2.923-1.292-4.5-1.869,0,0-.769.6-2.2,1.731-12.575,10.153-74.5,63.692-59.4,123.43,16.759,66.4,20.566,112.924,20.566,112.924h6.868s-3.807-46.54-20.6-112.939C154.146,547.134,215.469,493.794,228.452,483.319Z" transform="translate(-69.925 -154.501)"/><path class="e" d="M505.295,606.606c-16.8,66.4-20.582,112.923-20.582,112.923H472.476s.769-113.339-43.633-125.991a24.24,24.24,0,0,0-2.93-.684S381.3,504.335,443.7,481.43c0,0,.631.469,1.769,1.384C457.024,492.067,520.562,546.175,505.295,606.606Z" transform="translate(-127.751 -154.496)"/><path class="g" d="M260.222,592.874a29.408,29.408,0,0,0-5.768,1.646A753.141,753.141,0,0,1,240.24,483.181c1.415-1.131,2.2-1.731,2.2-1.731C304.808,504.355,260.222,592.874,260.222,592.874Z" transform="translate(-88.451 -154.501)"/><path class="g" d="M445.494,482.843A692.979,692.979,0,0,1,428.873,593.6a24.258,24.258,0,0,0-2.93-.685s-44.609-88.519,17.782-111.424C443.7,481.459,444.333,481.928,445.494,482.843Z" transform="translate(-127.758 -154.51)"/><path class="h" d="M383.766,511.515q-6.461,25.489-15.144,52.3s-27.473,28.619-93.834,0c0,0-6.63-18.69-13.921-50.463-16.052-69.86-35.3-202.989,5.715-339.732A508.968,508.968,0,0,1,318.252,56.36S353.293,96.593,379.013,173.6,421.1,364.4,383.766,511.515Z" transform="translate(-88.865 -56.36)"/><circle class="e" cx="55.093" cy="55.093" r="55.093" transform="translate(179.87 170.724)"/><path class="c" d="M375.726,338.274a39.072,39.072,0,0,1-63.838,30.219,39.479,39.479,0,0,1-7.322-7.945,38.466,38.466,0,0,1-2.523-4.146,38.995,38.995,0,0,1-4.453-18.128v-.931a39.118,39.118,0,0,1,28.458-36.7,40.4,40.4,0,0,1,9.414-1.431h1.169A39.072,39.072,0,0,1,375.726,338.274Z" transform="translate(-101.691 -112.427)"/><path class="e" d="M386.362,173.6c-62.507,29.927-112.462,0-112.462,0A508.97,508.97,0,0,1,325.608,56.36S360.65,96.593,386.362,173.6Z" transform="translate(-96.222 -56.36)"/><path class="e" d="M389.41,648.14q-4.384,17.259-9.768,35.111-2.554,8.514-5.384,17.167s-27.473,28.619-93.834,0c0,0-2.154-6.068-5.384-17.167-2.415-8.383-5.422-19.62-8.56-33.3,0,0,24.7,10.545,59.769,10.545a164.677,164.677,0,0,0,63.161-12.36Z" transform="translate(-94.509 -192.985)"/><path class="h" d="M382.211,693.79q-2.553,8.514-5.384,17.167s-27.473,28.619-93.834,0c0,0-2.154-6.068-5.384-17.167C277.6,693.79,345.239,713.249,382.211,693.79Z" transform="translate(-97.078 -203.524)"/><path class="f" d="M326.075,300.571l-.085.062L297.61,337.273v.931a38.995,38.995,0,0,0,4.453,18.128l33.442-57.192Z" transform="translate(-101.696 -112.411)"/><path class="f" d="M337.225,343.141l-23.243,34.8A39.479,39.479,0,0,1,306.66,370l27.689-29.719Z" transform="translate(-103.785 -121.909)"/><path class="f" d="M289.621,563.8s-6.63-18.7-13.921-50.463c-16.052-69.868-35.3-203,5.715-339.74A510.846,510.846,0,0,1,326.678,67.391c-5.207-7.3-8.461-11.021-8.461-11.021A508.918,508.918,0,0,0,266.532,173.6c-41.018,136.744-21.766,269.872-5.715,339.74,7.291,31.765,13.921,50.463,13.921,50.463,26.22,11.3,46.363,13.667,61.146,12.406C323.255,575.247,307.918,571.686,289.621,563.8Z" transform="translate(-88.853 -56.362)"/><path class="i" d="M966.7,736.237s35.949-44.733,33.565-89.534a86.95,86.95,0,0,1,14.26-53.116,146.28,146.28,0,0,1,16.921-20.766" transform="translate(-256.169 -175.596)"/><path class="c" d="M1048.845,533.868c-2.569,6.238,1.277,28.981,1.277,28.981s18.744-13.444,21.313-19.682a12.214,12.214,0,1,0-22.589-9.3Z" transform="translate(-274.93 -164.856)"/><path class="c" d="M1006.267,566.74c1.238,6.63,16.828,23.628,16.828,23.628s8.46-21.466,7.191-28.1a12.217,12.217,0,1,0-24.02,4.476Z" transform="translate(-265.256 -170.854)"/><path class="c" d="M974.9,642.234c4.415,5.1,26.458,11.906,26.458,11.906s-3.569-22.789-7.983-27.9a12.212,12.212,0,1,0-18.461,15.992Z" transform="translate(-257.377 -186.956)"/><path class="c" d="M965.311,706.366c3.484,5.776,24.058,16.206,24.058,16.206s.339-23.074-3.146-28.842a12.217,12.217,0,0,0-20.913,12.637Z" transform="translate(-255.442 -202.148)"/><path class="c" d="M1049.705,609c-6.261,2.5-28.966-1.577-28.966-1.577s13.629-18.605,19.9-21.113A12.217,12.217,0,1,1,1049.705,609Z" transform="translate(-268.646 -178.507)"/><path class="c" d="M1037.666,683.015c-6.722.515-27.166-10.168-27.166-10.168s18.567-13.683,25.3-14.2a12.22,12.22,0,1,1,1.869,24.369Z" transform="translate(-266.282 -195.403)"/><path class="c" d="M1015.136,753.617c-6.545,1.646-28.5-5.43-28.5-5.43s15.99-16.621,22.535-18.259a12.214,12.214,0,0,1,5.961,23.689Z" transform="translate(-260.773 -211.782)"/><path class="j" d="M1048.845,533.868c-2.569,6.238,1.277,28.981,1.277,28.981s18.744-13.444,21.313-19.682a12.214,12.214,0,1,0-22.589-9.3Z" transform="translate(-274.93 -164.856)"/><path class="j" d="M1006.267,566.74c1.238,6.63,16.828,23.628,16.828,23.628s8.46-21.466,7.191-28.1a12.217,12.217,0,1,0-24.02,4.476Z" transform="translate(-265.256 -170.854)"/><path class="j" d="M974.9,642.234c4.415,5.1,26.458,11.906,26.458,11.906s-3.569-22.789-7.983-27.9a12.212,12.212,0,1,0-18.461,15.992Z" transform="translate(-257.377 -186.956)"/><path class="j" d="M965.311,706.366c3.484,5.776,24.058,16.206,24.058,16.206s.339-23.074-3.146-28.842a12.217,12.217,0,0,0-20.913,12.637Z" transform="translate(-255.442 -202.148)"/><path class="j" d="M1049.705,609c-6.261,2.5-28.966-1.577-28.966-1.577s13.629-18.605,19.9-21.113A12.217,12.217,0,1,1,1049.705,609Z" transform="translate(-268.646 -178.507)"/><path class="j" d="M1037.666,683.015c-6.722.515-27.166-10.168-27.166-10.168s18.567-13.683,25.3-14.2a12.22,12.22,0,1,1,1.869,24.369Z" transform="translate(-266.282 -195.403)"/><path class="j" d="M1015.136,753.617c-6.545,1.646-28.5-5.43-28.5-5.43s15.99-16.621,22.535-18.259a12.214,12.214,0,0,1,5.961,23.689Z" transform="translate(-260.773 -211.782)"/><path class="i" d="M967.12,745.891s50.993-26.335,66.968-68.253a86.913,86.913,0,0,1,34.565-42.787A146.065,146.065,0,0,1,1092.5,622.73" transform="translate(-256.266 -187.119)"/><path class="c" d="M1140.246,587.436c-4.876,4.669-10.576,27.02-10.576,27.02s22.582-4.7,27.458-9.36a12.226,12.226,0,0,0-16.882-17.69Z" transform="translate(-293.794 -178.182)"/><path class="c" d="M1090.1,600.25c-1.538,6.568,5.807,28.458,5.807,28.458s16.375-16.206,17.959-22.812a12.214,12.214,0,1,0-23.766-5.645Z" transform="translate(-284.609 -179.76)"/><path class="c" d="M1030.78,656.553c1.969,6.453,19.367,21.6,19.367,21.6s5.976-22.3,4.007-28.727a12.217,12.217,0,0,0-23.374,7.122Z" transform="translate(-270.84 -191.284)"/><path class="c" d="M996.03,711.3c.846,6.7,15.429,24.566,15.429,24.566s9.66-20.943,8.807-27.643A12.215,12.215,0,1,0,996.03,711.3Z" transform="translate(-262.918 -204.392)"/><path class="c" d="M1111.773,657.971c-6.745-.246-25.843-13.175-25.843-13.175s20-11.483,26.743-11.237a12.214,12.214,0,1,1-.9,24.412Z" transform="translate(-283.696 -189.618)"/><path class="c" d="M1071.71,721.012c-6.361-2.254-20.72-20.305-20.72-20.305s22.528-4.976,28.881-2.723a12.216,12.216,0,1,1-8.161,23.028Z" transform="translate(-275.629 -204.357)"/><path class="c" d="M1021.963,776.332c-6.645-1.146-23.843-16.513-23.843-16.513s21.359-8.707,28-7.561a12.215,12.215,0,1,1-4.153,24.074Z" transform="translate(-263.423 -216.999)"/><path class="k" d="M964.885,655.514,925.36,598.191s-.769-14.19-3.323-17.505-.554-10.691-.554-10.691,2.769-4.053.369-4.422-.369-9.406-.369-9.406l-.185-14.375s2.215-13.844.369-17.136a5.438,5.438,0,0,1,.185-5.9s2.215-7.93,0-9.953-1.661-14.383-1.108-24.151-3.884-15.3-3.884-16.775-14.613-15.852-14.613-17.136-9.229-6.638-14.775-8.114-8.314-2.577-8.13-3.315-8.683-3.684-8.683-3.684-7.761-.554-10.722-4.43-11.991-4.984-12.252-5.022c-.054-.254-.115-.515-.169-.769s-.115-.554-.169-.831c.7-1.177,1.346-2.377,1.931-3.615.177-.377.346-.769.508-1.123,3.238-.146,6.561-.838,9.1-2.823a12.391,12.391,0,0,0,4.423-8.837,19.375,19.375,0,0,0-2.161-9.822c-1.615-3.323-3.992-6.761-3.177-10.36.362-1.538,1.292-2.923,1.769-4.446.9-2.884.069-6.053-1.331-8.73s-3.346-5.03-4.9-7.622a29.764,29.764,0,0,1-3.9-10.768c-.315-2-.438-4.107-1.446-5.868a10.929,10.929,0,0,0-3.238-3.269,32.357,32.357,0,0,0-19.859-6.022c-5.03.177-10.045,1.538-15.036.915a54.113,54.113,0,0,1-8.784-2.307c-6.2-1.831-13.344-2.584-18.744.961s-7.545,10.522-11.2,15.975c-3.23,4.83-7.968,8.876-10.429,13.983a1.1,1.1,0,0,1,.077-.292,16.727,16.727,0,0,0-1.377,3.723c-.938,4.015-.154,8.214.823,12.221.5,2.069,1.192,4.315,2.984,5.461s4.33.892,6.453,1.269c-.077.346-.169.7-.246,1.054a42.225,42.225,0,0,0,29.3,49.224v1.123a27.926,27.926,0,0,1-.192,3.169h0s-18.574-3.846-23.566-1.231-14.783,4.615-16.259,6.076-5.169.369-8.46,9.037-3.692,17.505-7.945,21.536-6.461,6.822-6.645,9.776.554,3.684-1.115,4.615-4.061,4.792-3.323,6.268c0,0,.923,3.684-2.031,5.522s-2.592,5.53-2.592,5.53-1.108,4.061-3.692,4.976-4.253,7.007-4.253,7.007l-8.407,9.653L693.8,518.132a7,7,0,0,0-9.883-.508l-8.153,7.353a16.106,16.106,0,0,0-8.16,4.861,21.036,21.036,0,0,0-4.222,6.291l-4.469,4.015a11.345,11.345,0,0,0-1.146,12.522l10.637,11.76.069.1a18.787,18.787,0,0,0-10.291,4.192c-15.883,14.006-16.075,26.92-13.667,32.8s22.535,28.573,22.535,28.573,11.7,15.206,28.589,23.3h0l-.131.131c-.331.354-.661.769-.984,1.154l-.277.354-.254.354-.3.446c-.085.115-.162.239-.238.362s-.215.346-.315.531l-.208.354c-.123.231-.254.469-.377.715l-.123.238c-.154.323-.308.654-.454,1-.054.123-.1.254-.154.377-.092.238-.192.485-.285.769s-.115.315-.169.477-.161.477-.238.723-.108.346-.154.515-.154.538-.223.815-.085.323-.131.5c-.1.423-.2.861-.285,1.323a3.25,3.25,0,0,1-.092.523q-.092.461-.161.946c-.038.223-.062.446-.092.669s-.077.608-.115.915l-.069.708c0,.338-.062.692-.085,1.046a3.645,3.645,0,0,1-.038.646c0,.585-.062,1.169-.069,1.784-.369,21.536.892,24.7.892,24.7s2.607,6.868,9.806,7.361a12.545,12.545,0,0,0,3.161-.169c9.606-1.661,32.142-5.53,40.087-4.053,4.776.885,13.621-.423,19.92-1.615l1.654-.315,1.154,3.661,3.653-1,3.077,1.792,1.961,1.123c3.646,12.368,18.459,8.153,18.459,8.153l3.476,2.015,35.657.923s7.691,4.615,12.621,6.061a11.713,11.713,0,0,0,1.792.392,80.93,80.93,0,0,0,9.937.185c2.73-.069,4.846-.185,4.846-.185s-.362-9.683-.885-20.52c13.629-.569,25.712-1.423,33.026-2.707,19.044-3.346,26.989-20.659,29.911-29.911a87.043,87.043,0,0,1,1.869,11.483,82.113,82.113,0,0,0,2.961,9.953,33.632,33.632,0,0,0,4.061,7.368c14.044-4.792,5.545-11.975,2.584-15.113s2.038-5.715,2.038-5.715,3.846-2.577,3.507-4.976-.554-4.976,12.006-4.792S964.885,655.514,964.885,655.514Zm-195.1-117.677c.162,1.054,1.915,12.414,3.5,15.383.331.631.461,2.869.415,6.068-7.445-.592-15.2-.908-15.2-.908a1.785,1.785,0,0,1,.4.946l-1.169-.262-1.7-.415,13.714-20.859Zm-27.166,43.225,12.883,2.046,1.084.169a42.4,42.4,0,0,0-.669,6.084c0,.192.292.423.708.692a16.6,16.6,0,0,0-.254,3.076c.208,1.023,6.23,3.223,13.137,5.053-.092.369-.185.723-.277,1.054h0c-6.1-3.207-15.713-4.707-16.821-7.091S718.572,578.3,718.572,578.3s-1.192-.631-3.253-1.631l8.614,1.631,2.369-.238a129.134,129.134,0,0,0,16.321,2.984Z" transform="translate(-181.526 -121.462)"/><path class="l" d="M936.84,740.367s-5.122,30.942-31.127,35.518-112.8,3.661-112.8,3.661-49.624-7.138-67.568-49.07-29.481-58.6-14.1-59.331,98.333,28.019,103.063,28.381S941.417,635.8,936.84,740.367Z" transform="translate(-195.537 -198.293)"/><path class="m" d="M936.84,740.367s-5.122,30.942-31.127,35.518-112.8,3.661-112.8,3.661-49.624-7.138-67.568-49.07-29.481-58.6-14.1-59.331,98.333,28.019,103.063,28.381S941.417,635.8,936.84,740.367Z" transform="translate(-195.537 -198.293)"/><path class="n" d="M703.783,791.826s2.592,6.83,9.722,7.314a12.642,12.642,0,0,0,3.13-.169c9.522-1.646,31.865-5.492,39.733-4.03,4.738.885,13.5-.423,19.736-1.6,4.153-.769,7.184-1.538,7.184-1.538s-7.322-24.35-8.245-25.081-32.957-19.959-32.957-19.959L716.7,744.94h-.077a13.341,13.341,0,0,0-8.6,5.053c-2.684,3.238-4.984,8.56-5.138,17.282C702.537,788.711,703.783,791.826,703.783,791.826Z" transform="translate(-195.249 -215.333)"/><path class="m" d="M703.784,791.833s2.592,6.83,9.722,7.314a104.225,104.225,0,0,1-6.922-10.06l.131-17.759a31.218,31.218,0,0,1,10-26.358h-.077s-13.367.908-13.737,22.3S703.784,791.833,703.784,791.833Z" transform="translate(-195.25 -215.34)"/><path class="g" d="M842.763,738.759l23.62-18.459,37.172-36.626s-4.015-.192-10.068-.454c-1.538.961-5.73,3.984-5.884,7.691-.185,4.476-10.052.308-15.175,2.869s-30.211,34.672-34.611,34.465-7.868-2.231-9.706.885c0,.069-.085.131-.131.2Z" transform="translate(-224.143 -201.084)"/><path class="g" d="M709.6,750.009c.838.408,1.685.769,2.554,1.169,17.951,7.691,40.1,23.843,41.756,26.735,1,1.784,13.844,9.583,23.758,15.429,4.153-.769,7.184-1.538,7.184-1.538s-7.322-24.35-8.245-25.081-32.957-19.959-32.957-19.959l-25.381-1.823h-.077A13.4,13.4,0,0,0,709.6,750.009Z" transform="translate(-196.812 -215.333)"/><path class="l" d="M644.5,672.2c2.377,5.861,22.3,28.388,22.3,28.388s12.629,16.475,30.581,24.166,40.1,23.843,41.748,26.735c1.061,1.884,15.383,10.5,25.443,16.421l2.253,1.315,5,2.9,2.646,1.538s6.153-4.922,12.237-9.876,12.021-9.806,12.121-10.083c.177-.546,2.554-6.776,2.007-7.138-.285-.192-1.538-2.73-3.846-5.669a26.012,26.012,0,0,0-9.33-7.691c-8.461-3.846-12.083-12.6-12.083-12.6s-.769-.585-2.023-1.354c-2.169-1.369-5.653-3.338-8.23-3.669-4.038-.508-11.537-8.745-11.537-8.745s-5.13-3.3-7.145-7.507c-1.923-4.015-30.319-23.52-32.95-25.32l68.845,44.21,16.475,10.591,23.62-18.459,37.18-36.626s-5-.246-12.306-.554c-18.067-.769-50.155-2.007-54.208-1.092a30.892,30.892,0,0,1-10.076.654s-9.137.415-15.183-2.777-15.575-4.684-16.675-7.045-33.511-13.729-33.511-13.729-44.125-23.435-59.877-9.514S642.117,666.348,644.5,672.2Z" transform="translate(-181.523 -190.011)"/><path class="o" d="M829.82,492.243,835.5,511.1l7.322,42.479,26.919,1.831,7.791-12.921,7.807-12.9s4.846-17.167,8.33-33.772c3.077-14.69,5.092-28.95,1.738-30.5-2.969-1.377-4.922-6.322-6.153-11.645-.161-.654-.308-1.323-.446-1.992a103.523,103.523,0,0,1-1.784-13.652s-56.4-2.923-48.524,20.328a37.056,37.056,0,0,1,2.123,12.368,29.415,29.415,0,0,1-.192,3.146A26.381,26.381,0,0,1,829.82,492.243Z" transform="translate(-224.568 -144.45)"/><path class="h" d="M814.58,499.906l2.015,32.042,4.576,27.281,5.13,12.637,4.576,69.129s44.156,5.107,54.893-.092a4.724,4.724,0,0,0,1.946-1.538c12.968-19.559,8.714-76.29,8.714-76.29l4.945-36.634-3.3-19.013-7.961-.846-6.153-.654s-1.385,1.708-3.384,4.346c-5.43,7.168-15.383,21.266-14.744,27.15.908,8.06-1.1,16.3-4.215,17.582s-5.676,3.476-6.222,1.284-1.1-2.746-.554-5.861-2.384-12.637-2.384-12.637-4.938-11.168-4.615-15.929-.546-10.26-2.015-11.537-3.477-2.569-1.831-8.46-7.222-17.267-7.222-17.267Z" transform="translate(-221.049 -155.228)"/><path class="g" d="M890.387,573.774l1.83,54.754,10.576,5.861a4.731,4.731,0,0,0,1.946-1.538c12.975-19.59,8.722-76.313,8.722-76.313l4.946-36.626-3.3-19.005-7.968-.846c3.077-14.69,5.092-28.95,1.746-30.5-2.977-1.377-4.93-6.322-6.2-11.645h0l-5.692,38.764s.477,3.492.646,7.091c.131,2.677.085,5.384-.461,6.822-1.284,3.3-.369,9.16-.369,9.16-3.3,5.815-4.945,16.59-5.753,27C889.971,560.591,890.387,573.774,890.387,573.774Z" transform="translate(-238.533 -149.069)"/><path class="n" d="M903.164,456.82s9.229,1.146,12.152,4.992,10.622,4.376,10.622,4.376,8.791,2.93,8.607,3.661,2.561,1.838,8.06,3.3,14.613,6.776,14.613,8.06,14.467,15.56,14.467,17.029,4.4,6.922,3.846,16.659-1.1,21.974,1.1,23.989,0,9.891,0,9.891a5.384,5.384,0,0,0-.115,5.861c1.831,3.3-.362,17.036-.362,17.036l.177,14.283s-2.015,8.968.369,9.337-.369,4.392-.369,4.392-2.015,7.33.554,10.622,3.292,17.4,3.292,17.4l39.226,56.916s.554,10.437-11.9,10.253-12.306,2.384-11.906,4.761-3.477,4.945-3.477,4.945-4.945,2.561-2.015,5.676,11.352,10.253-2.561,15.013a33.191,33.191,0,0,1-4.03-7.322,82.881,82.881,0,0,1-2.93-9.883s-1.285-13.921-3.846-15.752-2.2-10.622-2.2-10.622,3.661-7.138-1.461-10.068-79.551-44.094-79.551-44.094L891.7,572.774s-1.284-40.464,6.407-54.016c0,0-.915-5.861.369-9.153s-.185-13.921-.185-13.921Z" transform="translate(-238.834 -148.815)"/><path class="g" d="M824.14,484.744s-18.405-3.792-23.351-1.231-14.613,4.615-16.152,6.045-5.13.369-8.422,8.976-3.669,17.39-7.876,21.42-6.407,6.776-6.591,9.706.546,3.661-1.1,4.615-4.03,4.761-3.3,6.23,38.156,33.649,38.156,33.649,1.838,12.306,3.484,15.383-1.831,45.963-5.492,48.893,24.72,2.661,24.72,2.661,1.277-28.112,2.377-29.581-.769-31.534-.769-31.534-.185-25.635,2.2-32.411,2.115-29.273,2.115-29.273,2.107-13.514,4.669-16.667S824.14,484.744,824.14,484.744Z" transform="translate(-207.805 -154.772)"/><path class="n" d="M823.43,484.034s-18.413-3.792-23.358-1.231-14.613,4.576-16.113,6.045-5.122.361-8.46,8.968-3.661,17.4-7.876,21.428-6.407,6.776-6.591,9.706.554,3.661-1.092,4.576-4.03,4.761-3.3,6.222,38.087,33.7,38.087,33.7,1.831,12.306,3.476,15.383-1.831,45.956-5.492,48.886,24.72,2.661,24.72,2.661,1.284-28.112,2.384-29.573-.769-31.534-.769-31.534-.177-25.635,2.2-32.411,2.115-29.3,2.115-29.3,2.107-13.514,4.661-16.659S823.43,484.034,823.43,484.034Z" transform="translate(-207.641 -154.608)"/><path class="g" d="M840.774,458.363A37.055,37.055,0,0,1,842.9,470.73a42.018,42.018,0,0,0,48.186-19.044,103.525,103.525,0,0,1-1.784-13.652S832.906,435.112,840.774,458.363Z" transform="translate(-226.923 -144.45)"/><path class="o" d="M804.82,414.28a41.933,41.933,0,1,0,.908-8.714,41.933,41.933,0,0,0-.908,8.714Z" transform="translate(-218.796 -129.303)"/><path class="n" d="M758.773,553.06,748.7,556.175s.915,3.661-2.015,5.492-2.561,5.5-2.561,5.5-1.1,4.023-3.661,4.938-4.215,6.922-4.215,6.922l-8.422,9.706s-3.115,2.561-2.561,3.846-3.3,1.646-3.3,1.646l2.015,32.626,17.4,3.3,10.768-1.1,8.791-3.3,7.691-4.615,3.507-8.9L787.523,588.8Z" transform="translate(-199.668 -171.034)"/><path class="o" d="M711.821,604s-22.3-32.234-39-14.836,6.776,45.594,12.268,44.679,31.68-2.377,31.68-2.377Z" transform="translate(-186.958 -178.179)"/><rect class="b" width="47.24" height="53.685" rx="12.62" transform="translate(471.466 428.499) rotate(-42.05)"/><rect class="g" width="47.24" height="53.685" rx="12.62" transform="translate(471.466 428.499) rotate(-42.05)"/><rect class="b" width="47.24" height="53.685" rx="12.62" transform="translate(472.095 425.845) rotate(-42.05)"/><circle class="c" cx="10.437" cy="10.437" r="10.437" transform="translate(496.59 420.844)"/><circle class="g" cx="10.437" cy="10.437" r="10.437" transform="translate(496.59 420.844)"/><circle class="c" cx="10.437" cy="10.437" r="10.437" transform="translate(497.174 419.521)"/><path class="o" d="M706.5,615.366c-.185,24.174,49.809,29.3,49.809,29.3l12.767,2.031,5.722.908,2.384-23.6s-2.623-.392-5.9-1.154c-4.838-1.131-11.106-3.077-12.421-5.807C756.67,612.466,706.677,591.2,706.5,615.366Z" transform="translate(-196.097 -182.8)"/><path class="g" d="M806,405.618a4.977,4.977,0,0,1,3.077,1.369c1.415,1.5,1.492,4.161,3.33,5.084a3.784,3.784,0,0,0,2.184.254c4.869-.692,7.691-6.153,12.36-7.691,2.661-.861,5.592-.3,8.191.7a6.1,6.1,0,0,1,2.715,1.746c1.538,2.023.469,5,1.192,7.453,1.008,3.4,5.069,4.753,8.583,5.2s7.476.692,9.822,3.346a8.914,8.914,0,0,1,1.746,7.084,5.606,5.606,0,0,0,0,2.623c.969,2.746,5.722,2.307,6.961.169.908-1.577.631-2.884,2.769-3.323a9.119,9.119,0,0,1,4.484.769,32.849,32.849,0,0,0,11.6,1.784A41.941,41.941,0,1,0,806,405.618Z" transform="translate(-219.068 -129.355)"/><path class="l" d="M856.085,424.932a5.606,5.606,0,0,1,0-2.623,8.921,8.921,0,0,0-1.746-7.084c-2.307-2.654-6.307-2.907-9.822-3.346s-7.576-1.792-8.583-5.192c-.723-2.453.369-5.438-1.192-7.461a6,6,0,0,0-2.707-1.738,12.639,12.639,0,0,0-8.2-.708c-4.669,1.538-7.491,7.014-12.36,7.691a3.784,3.784,0,0,1-2.184-.254c-1.838-.923-1.915-3.584-3.33-5.076-2.223-2.354-6.445-.838-9.168-2.584-1.777-1.146-2.461-3.369-2.953-5.422-.969-3.984-1.746-8.16-.815-12.145,1.592-6.815,7.691-11.483,11.537-17.3,3.623-5.422,5.653-12.306,11.1-15.875s12.437-2.777,18.574-.954a57.328,57.328,0,0,0,8.7,2.307c4.953.608,9.922-.769,14.906-.908a32.011,32.011,0,0,1,19.682,5.976,10.89,10.89,0,0,1,3.215,3.253c.992,1.754,1.123,3.846,1.423,5.83A29.8,29.8,0,0,0,886,372.039c1.538,2.577,3.469,4.915,4.861,7.576s2.207,5.807,1.315,8.668c-.469,1.538-1.4,2.869-1.746,4.415-.815,3.576,1.538,6.991,3.146,10.291a19.3,19.3,0,0,1,2.138,9.76,12.306,12.306,0,0,1-4.384,8.776c-2.592,2.031-6,2.707-9.283,2.815a32.9,32.9,0,0,1-11.829-1.777c-1.346-.462-3.077-1.069-4.484-.769-2.138.438-1.861,1.746-2.769,3.323C861.8,427.271,857.054,427.678,856.085,424.932Z" transform="translate(-215.976 -122.611)"/><path class="g" d="M840.813,740.159l23.62-18.459,37.18-36.626s-5-.246-12.306-.554a7.945,7.945,0,0,0-2.592,5c-.185,4.476-10.052.315-15.175,2.877s-30.211,34.665-34.611,34.457-7.868-2.231-9.706.885a1.9,1.9,0,0,1-.131.208A5.207,5.207,0,0,1,824.3,729.6Z" transform="translate(-223.293 -201.384)"/><path class="l" d="M783.87,735.052l11.868,37.887,1.861,5.953,5.653-1.538,12.46-3.423,55.5-15.244a48.352,48.352,0,0,0,20-5.33,60.5,60.5,0,0,1,34.488-7.522c7.337.684,15.5-2.477,22.3-14.983,0,0,15.383-45.379-23.443-58.454s-40.672,6.922-40.672,6.922-.2.108-.523.323c-1.538.961-5.73,3.984-5.884,7.691-.185,4.476-10.052.308-15.175,2.869s-30.211,34.672-34.611,34.465-7.868-2.23-9.706.885c0,.069-.085.131-.131.2-1.354,1.869-5.43,2.307-8.13,2.377-1.469.046-2.538,0-2.538,0l-.346.108-2.877.8Z" transform="translate(-213.959 -197.562)"/><path class="g" d="M787.86,652.343l5.722.908,2.384-23.6s-2.623-.392-5.9-1.154C790.937,631.769,788.968,644.513,787.86,652.343Z" transform="translate(-214.88 -188.451)"/><path class="g" d="M937.847,515.83s17.029-4.945,12.814,43.4-35.7,78.89-35.7,78.89S878.7,654.051,862.4,651.489a279.336,279.336,0,0,0-28.2-3.077,41.372,41.372,0,0,0-16.483-4.392c-9.16-.369-28.381-6.045-28.75-7.876s4.761-28.75,2.561-30.765c0,0,25.635,1.054,28.2,2.907s6.222.523,8.968,0,11.175-7.853,27.835-1.438c0,0,5.676.546,7.876-.915s5.722-.369,5.722-.369,3.453-1.284,3.984-2.054,4.938,0,4.938,0a1.954,1.954,0,0,0,2.753-1.284,11.971,11.971,0,0,1,2.561-4.023s4.945-27.835,14.283-38.272c0,0,2.746-2.384,2.015-5.315S915.9,509.962,937.847,515.83Z" transform="translate(-215.133 -162.308)"/><path class="n" d="M937.3,510.991s17.029-4.945,12.821,43.4-35.749,78.92-35.749,78.92-36.257,15.929-52.555,13.368-28.2-3.115-28.2-3.115a41.316,41.316,0,0,0-16.482-4.392c-9.153-.369-28.381-6.045-28.75-7.876s4.761-28.75,2.569-30.765c0,0,25.635,1.054,28.2,2.907s6.23.523,8.976,0S839.293,595.6,855.96,602c0,0,5.676.546,7.868-.915s5.73-.369,5.73-.369,3.43-1.284,3.976-2.015,4.945,0,4.945,0a1.946,1.946,0,0,0,2.746-1.277,11.952,11.952,0,0,1,2.561-4.03s4.946-27.835,14.283-38.272c0,0,2.746-2.384,2.015-5.307S915.283,505.13,937.3,510.991Z" transform="translate(-214.997 -161.191)"/><path class="g" d="M810,747.107l24.181,29.227c.092-.085.154-.146.154-.169.185-.554,2.561-6.776,2.015-7.145s-4.761-9.522-13.183-13.367a24.783,24.783,0,0,1-10.352-9.422Z" transform="translate(-219.992 -215.631)"/><path class="g" d="M810.276,803.507l2.646,1.538s6.153-4.922,12.237-9.876,12.021-9.806,12.121-10.083c.177-.546,2.554-6.776,2.007-7.138-.285-.192-1.538-2.73-3.846-5.668-16.4-4.615-5.961,6.791-4.569,7.314,0,0-20-4.615-21.059,17.159A25.659,25.659,0,0,0,810.276,803.507Z" transform="translate(-219.937 -221.392)"/><path class="n" d="M831,812.728l3.484,2.015,35.38.915s7.584,4.615,12.506,6.015a10.72,10.72,0,0,0,1.777.392,79.438,79.438,0,0,0,9.845.185c2.707-.069,4.807-.185,4.807-.185s-1.677-44.609-2.938-49.224c-.6-2.246-3.561-1.754-6.484-.631a42.436,42.436,0,0,0-6.33,3.207s-15.013,1.454-17.4,2.746-9.153-.769-13.367,0-11.714-4.961-11.714-4.961c-20.513-6.768-8.976,5.861-7.514,6.414,0,0-19.951-4.615-21.051,17.159S831,812.728,831,812.728Z" transform="translate(-220.445 -221.399)"/><path class="n" d="M903.145,795.53c.385,9.229,7.576,20.682,11.86,26.735,2.707-.069,4.807-.185,4.807-.185s-1.677-44.609-2.938-49.224c-.6-2.246-3.561-1.754-6.484-.631C906.875,778.84,902.837,788.092,903.145,795.53Z" transform="translate(-241.493 -221.414)"/><path class="g" d="M903.145,795.53c.385,9.229,7.576,20.682,11.86,26.735,2.707-.069,4.807-.185,4.807-.185s-1.677-44.609-2.938-49.224c-.6-2.246-3.561-1.754-6.484-.631C906.875,778.84,902.837,788.092,903.145,795.53Z" transform="translate(-241.493 -221.414)"/><path class="m" d="M895.111,796.753c2.43,8.906,2.407,18.9,6.284,24.935a10.716,10.716,0,0,0,1.777.392,79.437,79.437,0,0,0,9.845.185c2.707-.069,4.807-.185,4.807-.185s-1.677-44.609-2.938-49.224c-.6-2.246-3.561-1.754-6.484-.631a42.44,42.44,0,0,0-6.33,3.207S892,785.354,895.111,796.753Z" transform="translate(-239.504 -221.414)"/><path class="g" d="M736.77,686.94s17.552,5.7,32.426,25.943Z" transform="translate(-203.085 -201.943)"/><g class="p" transform="translate(576.593 252.69)"><path d="M922.015,401.26a3.585,3.585,0,0,1-.108.385,12.413,12.413,0,0,1-.608,1.538A11.482,11.482,0,0,1,922.015,401.26Z" transform="translate(-822.281 -388.677)"/><path d="M792.983,388.6a16.5,16.5,0,0,1,1.361-3.7c-.092.315-.192.631-.269.954-.931,3.984-.154,8.16.815,12.145.5,2.054,1.177,4.276,2.953,5.422,2.73,1.746,6.922.223,9.168,2.577,1.415,1.5,1.492,4.161,3.338,5.084a3.776,3.776,0,0,0,2.184.254c4.861-.692,7.691-6.153,12.36-7.691,2.661-.861,5.584-.3,8.191.708a6,6,0,0,1,2.707,1.738c1.538,2.023.469,5.007,1.192,7.453,1.008,3.4,5.069,4.753,8.583,5.192s7.476.692,9.822,3.353a8.906,8.906,0,0,1,1.746,7.084,5.707,5.707,0,0,0,0,2.623c.969,2.746,5.722,2.307,6.922.169.908-1.577.638-2.884,2.777-3.323,1.438-.3,3.138.308,4.476.769a32.9,32.9,0,0,0,11.829,1.777c3.284-.115,6.7-.769,9.283-2.815a10.767,10.767,0,0,0,2.846-3.461,11.645,11.645,0,0,1-3.923,6.215c-2.584,2.031-5.991,2.707-9.283,2.815a32.834,32.834,0,0,1-11.822-1.777c-1.346-.462-3.077-1.069-4.484-.769-2.138.438-1.869,1.746-2.769,3.323-1.246,2.169-5.991,2.577-6.968-.169a5.705,5.705,0,0,1,0-2.623,8.887,8.887,0,0,0-1.738-7.084c-2.354-2.653-6.315-2.907-9.83-3.346s-7.576-1.792-8.576-5.192c-.731-2.453.369-5.438-1.192-7.461a6.061,6.061,0,0,0-2.715-1.738,12.616,12.616,0,0,0-8.191-.708c-4.676,1.538-7.5,7.014-12.36,7.691a3.776,3.776,0,0,1-2.184-.254c-1.846-.923-1.923-3.584-3.338-5.076-2.223-2.354-6.438-.838-9.16-2.584-1.784-1.146-2.461-3.369-2.961-5.422C792.821,396.76,792.044,392.584,792.983,388.6Z" transform="translate(-792.558 -384.9)"/></g><path class="g" d="M921.505,577.626c-3.353,4.53-7.184,8.722-10.153,13.514s-5.069,10.383-4.446,15.982c3.076-3.153,4.476-7.507,6.415-11.46,3.276-6.691,8.184-12.368,12.306-18.521.769-1.177,5.853-7.96,3.292-8.284C926.812,568.589,922.651,576.08,921.505,577.626Z" transform="translate(-242.339 -174.679)"/></g></svg>