<svg xmlns="http://www.w3.org/2000/svg" width="120.536" height="107.152" viewBox="0 0 120.536 107.152"><defs><style>.a{opacity:0.15;}.b{fill:none;stroke:#413f72;}.b,.c{fill-rule:evenodd;}.c{fill:#413f72;}</style></defs><g transform="translate(-313.079 -572)"><g class="a" transform="translate(328.762 587.684)"><path class="b" d="M27.034,23.895H67.762a6.686,6.686,0,0,1,6.666,6.668V37.23H10.079V15.2H21.887a5.16,5.16,0,0,1,5.146,5.145v3.551Z" transform="translate(-10.079 -15.199)"/><path class="b" d="M10.079,33.344H93.707a20.784,20.784,0,0,1,20.724,20.724V100.6H10.079V46.825H104.29V45.087H10.079Z" transform="translate(-10.079 -9.629)"/></g><g transform="translate(313.079 572)"><path class="c" d="M27.034,23.895H67.762a6.686,6.686,0,0,1,6.666,6.668V37.23H10.079V15.2H21.887a5.16,5.16,0,0,1,5.146,5.145v3.551Z" transform="translate(-10.079 -15.199)"/><path class="c" d="M10.079,33.344H93.707a20.784,20.784,0,0,1,20.724,20.724V100.6H10.079V46.825H104.29V45.087H10.079Z" transform="translate(-10.079 -9.629)"/></g></g></svg>